<svg xmlns="http://www.w3.org/2000/svg" xmlns:xlink="http://www.w3.org/1999/xlink" width="105.331" height="79.662" viewBox="0 0 105.331 79.662">
  <defs>
    <clipPath id="clip-path">
      <rect id="Ret칙ngulo_1019" data-name="Ret칙ngulo 1019" width="105.331" height="79.662" rx="10" fill="#0492a8"/>
    </clipPath>
  </defs>
  <g id="Grupo_de_m치scara_24" data-name="Grupo de m치scara 24" clip-path="url(#clip-path)">
    <g id="Camada_1-2" transform="translate(0.075 11.81)">
      <path id="Caminho_466" data-name="Caminho 466" d="M49.757.079C69.819-.938,89.034,9.112,102.02,23.886c.7.79,3.369,3.783,3.143,4.517-.414,1.43-7.678,8.751-9.241,10.163C67.486,64.141,28.359,61.224,3.329,32.675,2.5,31.734-.379,28.591.036,27.631a42.629,42.629,0,0,1,3.049-3.764C14.847,10.5,31.709.982,49.757.079Zm-13,8.45C25.442,11.615,14.79,19.143,7.507,28.177a62.573,62.573,0,0,0,29.02,19.648l-3.764-4.366c-8.45-11.01-6.192-25.971,3.99-34.93ZM68.37,47.806A61.536,61.536,0,0,0,97.616,28.177,62.883,62.883,0,0,0,76.218,11.3c-2.258-1.054-5.533-2.522-7.829-2.559,12.365,10.257,11.951,28.681,0,39.07ZM49.739,9.093c-25.463,3.5-19.008,44.132,7.81,37.621C79.869,41.275,74.091,5.762,49.739,9.093Z" transform="translate(0.005 -0.008)" fill="#0492a8"/>
      <circle id="Elipse_56" data-name="Elipse 56" cx="11.367" cy="11.367" r="11.367" transform="translate(41.331 16.726)" fill="#0492a8"/>
    </g>
  </g>
</svg>
