<svg xmlns="http://www.w3.org/2000/svg" xmlns:xlink="http://www.w3.org/1999/xlink" width="119.493" height="90.284" viewBox="0 0 119.493 90.284">
  <defs>
    <clipPath id="clip-path">
      <rect id="Ret칙ngulo_1018" data-name="Ret칙ngulo 1018" width="119.493" height="90.284" rx="10" fill="#0492a8"/>
    </clipPath>
  </defs>
  <g id="Grupo_de_m치scara_26" data-name="Grupo de m치scara 26" clip-path="url(#clip-path)">
    <g id="Camada_1-2" transform="translate(14.496 0.019)">
      <path id="Caminho_468" data-name="Caminho 468" d="M57.883,23.769c36.446-3.394,55.6,42.438,27.609,65.838-27.932,23.362-69.27-3.318-59.959-38.57.512-1.953,4.722-12.7,6.675-12.364l3.868,4.21c-12.382,17.256-3.6,42.305,16.8,47.956a31.234,31.234,0,0,0,36.6-43.879c-8.249-16.971-30.511-22.3-45.908-11.586l-4.21-3.868c-.228-1.308,7.225-4.854,8.628-5.385A38.811,38.811,0,0,1,57.9,23.75Z" transform="translate(-8.372 -8.163)" fill="#0492a8"/>
      <path id="Caminho_469" data-name="Caminho 469" d="M65.759,42.591c25.5-2.37,37.47,31.364,16.365,45.472-22.812,15.265-49.89-11.719-34.7-34.227l4.21,4.3c-5.746,10.448-.607,24.025,11.036,27.306A18.791,18.791,0,0,0,84.759,58.8c-4.7-9.614-16.63-12.553-25.979-7.869l-4.3-4.172c2.825-2.408,7.585-3.849,11.283-4.191Z" transform="translate(-14.882 -14.697)" fill="#0492a8"/>
      <path id="Caminho_470" data-name="Caminho 470" d="M0,14.108c2.029-1.176,8.533-3.318,9.9-4.684C10.847,8.476,13.956,0,14.791,0L25.239,15.037v5.423L55.522,50.744a3.1,3.1,0,0,1-3.887,4.8L20.954,24.822l-5.821-.152Z" fill="#0492a8"/>
      <path id="Caminho_471" data-name="Caminho 471" d="M62.853,69.477c.265-.209,4.816,4.418,5.025,4.76.948,1.574.7,3.2,2.56,4.722,6.428,5.309,14.734-4.267,8.362-9.728-1.308-1.138-2.674-1.214-3.887-2.029-.417-.284-4.987-4.722-4.779-5.006C81.721,57.872,92.112,71.468,84.7,81.537c-8.628,11.719-27,1.574-21.845-12.06Z" transform="translate(-21.439 -21.237)" fill="#0492a8"/>
    </g>
  </g>
</svg>
