<svg xmlns="http://www.w3.org/2000/svg" xmlns:xlink="http://www.w3.org/1999/xlink" width="96.48" height="72.581" viewBox="0 0 96.48 72.581">
  <defs>
    <clipPath id="clip-path">
      <rect id="Ret칙ngulo_1020" data-name="Ret칙ngulo 1020" width="96.48" height="72.581" rx="10" fill="#0492a8"/>
    </clipPath>
  </defs>
  <g id="Grupo_de_m치scara_25" data-name="Grupo de m치scara 25" clip-path="url(#clip-path)">
    <g id="Camada_1-2" transform="translate(0.385 1.313)">
      <path id="Caminho_467" data-name="Caminho 467" d="M12.459,0H83.287c.845.242,6.26,8.272,7.206,9.7,1.067,1.61,5.354,7.387,5.213,8.776a7.918,7.918,0,0,1-1.691,2.7C84.756,32.647,72.3,44.461,62.113,55.451c-3.6,3.885-7.165,8.655-10.849,12.338-2.174,2.174-3.482,3.2-6.078.725L.3,19.2,0,18.014ZM39.168,5.233H19.363l7.065,9.138Zm37.2,0H56.558L69.3,14.371ZM60.905,15.377,48.024,5.8c-.805-.121-11.9,8.192-13.2,9.581Zm-40.577,0c-1.308-1.288-5.616-8.232-7-8.212L7.769,15.377Zm55.068,0H87.957L82.4,7.165C80.972,7.165,76.645,14.069,75.4,15.377ZM23.952,20.691H8.735L38.2,52.573,23.952,20.691Zm41.784,0H29.99L48.1,60.3,65.736,20.691Zm21.255,0H71.774L57.524,52.573,86.99,20.691Z" fill="#0492a8"/>
    </g>
  </g>
</svg>
