<svg xmlns="http://www.w3.org/2000/svg" width="12.976" height="12.976" viewBox="0 0 12.976 12.976">
  <path id="Icon_awesome-linkedin-in" data-name="Icon awesome-linkedin-in" d="M2.9,12.977H.214V4.313H2.9ZM1.558,3.131A1.565,1.565,0,1,1,3.116,1.559,1.571,1.571,0,0,1,1.558,3.131Zm11.415,9.845H10.289V8.759c0-1.005-.02-2.294-1.4-2.294-1.4,0-1.613,1.092-1.613,2.222v4.29H4.59V4.313H7.17V5.495h.038A2.827,2.827,0,0,1,9.753,4.1c2.723,0,3.223,1.793,3.223,4.122v4.759Z" transform="translate(0 -0.001)" fill="#000"/>
</svg>
