<svg id="Grupo_251" data-name="Grupo 251" xmlns="http://www.w3.org/2000/svg" xmlns:xlink="http://www.w3.org/1999/xlink" width="244.594" height="61.676" viewBox="0 0 244.594 61.676">
  <defs>
    <clipPath id="clip-path">
      <rect id="Retângulo_18" data-name="Retângulo 18" width="244.594" height="61.676" fill="none"/>
    </clipPath>
  </defs>
  <path id="Caminho_31" data-name="Caminho 31" d="M141.949,47.609l-10.83,13.1H126.5l14.365-17.292h6.253l-2.47,17.292h-4.645Z" transform="translate(-47.481 -16.297)" fill="#78a5c4"/>
  <path id="Caminho_32" data-name="Caminho 32" d="M152.2,39.664l2.576-3.359h3.61L154.9,39.664Z" transform="translate(-57.125 -13.626)" fill="#78a5c4"/>
  <g id="Grupo_9" data-name="Grupo 9">
    <g id="Grupo_8" data-name="Grupo 8" clip-path="url(#clip-path)">
      <path id="Caminho_33" data-name="Caminho 33" d="M164.954,56.318c.192.369.645.553,1.346.553h6.8l2.9-5.929h4.641l-4.771,9.77H163.65a6.2,6.2,0,0,1-2.271-.367,2.727,2.727,0,0,1-1.386-1.088,2.847,2.847,0,0,1-.385-1.78,6.979,6.979,0,0,1,.736-2.425l2.93-5.981A10.006,10.006,0,0,1,167,44.9a9.8,9.8,0,0,1,2.436-1.1,9.347,9.347,0,0,1,2.624-.376H184.3l-1.864,3.834H170.97a3.367,3.367,0,0,0-3.055,1.791l-2.726,5.633a1.881,1.881,0,0,0-.236,1.64" transform="translate(-59.903 -16.297)" fill="#78a5c4"/>
      <path id="Caminho_34" data-name="Caminho 34" d="M212.8,43.421h4.647l-8.435,17.292H196.768a6.149,6.149,0,0,1-2.264-.367,2.783,2.783,0,0,1-1.373-1.088,2.858,2.858,0,0,1-.374-1.78,6.878,6.878,0,0,1,.73-2.425l5.684-11.632h4.641l-5.478,11.258a1.875,1.875,0,0,0-.239,1.64q.285.553,1.349.553h6.79Z" transform="translate(-72.344 -16.297)" fill="#78a5c4"/>
      <path id="Caminho_35" data-name="Caminho 35" d="M234.007,47.028l1.74-3.609H231.1l-1.8,3.686-6.637,13.62h4.649l6.564-13.46.109-.208.022-.022Z" transform="translate(-83.573 -16.297)" fill="#78a5c4"/>
      <path id="Caminho_36" data-name="Caminho 36" d="M248.423,47.609l-10.829,13.1h-4.621l14.364-17.292H253.6l-2.476,17.292h-4.641Z" transform="translate(-87.443 -16.297)" fill="#78a5c4"/>
      <path id="Caminho_37" data-name="Caminho 37" d="M285.357,46.6l1.549-3.179h-4.643l-1.729,3.553-6.7,13.754h4.647l6.561-13.46.314-.648Z" transform="translate(-102.777 -16.296)" fill="#78a5c4"/>
      <path id="Caminho_38" data-name="Caminho 38" d="M298.733,60.714l-3.715-10.732-5.223,10.732h-4.641l8.426-17.292H298.3l3.682,10.73,5.229-10.73h4.639l-8.431,17.292Z" transform="translate(-107.027 -16.298)" fill="#78a5c4"/>
      <path id="Caminho_39" data-name="Caminho 39" d="M343.8,44.9a2.839,2.839,0,0,0-1.389-1.1,6.11,6.11,0,0,0-2.269-.376h-6.186a9.367,9.367,0,0,0-2.624.376,9.891,9.891,0,0,0-2.443,1.1,10.314,10.314,0,0,0-2.1,1.767,10.091,10.091,0,0,0-1.615,2.408l-2.927,5.981a6.932,6.932,0,0,0-.732,2.425,2.846,2.846,0,0,0,.378,1.782,2.752,2.752,0,0,0,1.375,1.086,6.079,6.079,0,0,0,2.259.367h6.187a9.6,9.6,0,0,0,5.074-1.453,9.688,9.688,0,0,0,2.121-1.782,9.807,9.807,0,0,0,1.614-2.425l2.934-5.981a6.907,6.907,0,0,0,.728-2.408A2.871,2.871,0,0,0,343.8,44.9m-5.174,4.555-2.547,5.227a4.081,4.081,0,0,1-1.379,1.64,3.4,3.4,0,0,1-1.9.553h-4.6q-1.058,0-1.351-.553a1.922,1.922,0,0,1,.239-1.64l2.552-5.227a3.858,3.858,0,0,1,1.349-1.642,3.4,3.4,0,0,1,1.908-.555h4.594q2.175,0,1.136,2.2" transform="translate(-120.67 -16.297)" fill="#78a5c4"/>
      <path id="Caminho_40" data-name="Caminho 40" d="M354.455,60.714h-5.049L359,52.076l-1.161-8.654h5.05l.984,6.031,6.818-6.031h5.049l-9.64,8.654,1.211,8.638h-5.052l-.936-6.036Z" transform="translate(-131.144 -16.298)" fill="#78a5c4"/>
      <path id="Caminho_41" data-name="Caminho 41" d="M54.035,45.239,38.324,59.464l3.849,3.843s2.263,2.318,4.285.152L56.577,49.778s1.161-1.068-2.542-4.539" transform="translate(-14.384 -16.98)" fill="#78a5c4"/>
      <path id="Caminho_42" data-name="Caminho 42" d="M12.02,28.108a3.1,3.1,0,0,0,3.022,1.555l22.83-3.438a5.176,5.176,0,0,1,3.066-3.972L8.129,19.925Z" transform="translate(-3.051 -7.479)" fill="#78a5c4"/>
      <path id="Caminho_43" data-name="Caminho 43" d="M4.654,11.236,42.813,14.7c3.11.321,1.276-1.357,1.276-1.357C38.442,7.2,0,0,0,0Z" fill="#78a5c4"/>
      <path id="Caminho_44" data-name="Caminho 44" d="M41.4,30.976,17.346,35.65,22.1,43.529s.4.67,1.965-.229l18.713-8.767A7.128,7.128,0,0,1,41.4,30.976" transform="translate(-6.511 -11.626)" fill="#78a5c4"/>
      <path id="Caminho_45" data-name="Caminho 45" d="M97.612,50.784c.958-1.935,1.177-4.245-2.281-5.284l-1.269.137-2.783.3V45.93c-.017-.018-2.156-2.2-4.462-2.121l-22.407-.018.122.095c1.194,1.112,2.828,2.982,2.881,3.6,1.008-.3,17.512-5.072,22.4-.518a16.885,16.885,0,0,1,4.654-.195c1.267.184,2.311.672,2.39,1.765a3.1,3.1,0,0,1-.607,2.139,3.71,3.71,0,0,0-.412-.159c-2.134-.758-12.408-3.338-27.283,10.15l9.055.047C83.676,50.988,89.854,50.462,93,50.93v-.015a4.252,4.252,0,0,1,1.837.52c.007,0,0,0,0,0v.006c.71.405,1.093,1.136.588,2.43a14.243,14.243,0,0,0,2.2-3.091" transform="translate(-24.176 -16.436)" fill="#78a5c4"/>
      <path id="Caminho_46" data-name="Caminho 46" d="M49.445,41.732a35.082,35.082,0,0,0-2.379-3.973.148.148,0,0,0-.026-.046L27.334,48.278l3.986,5.273s1.6,2.414,2.938,1.366l0,0,.007,0a.3.3,0,0,1,.049-.033s1.227-1.017,2.934-2.565L49.134,41.99Z" transform="translate(-10.259 -14.155)" fill="#78a5c4"/>
      <path id="Caminho_47" data-name="Caminho 47" d="M62.436,63.829a17.518,17.518,0,0,0-.4-10.27L51.317,69.111l4.234,2.154s2.872,1.269,4.181-1.048Z" transform="translate(-19.261 -20.102)" fill="#78a5c4"/>
      <path id="Caminho_48" data-name="Caminho 48" d="M98.56,49.061a.523.523,0,0,0,.6.1l.508-.5c.172-.181.066-.294.066-.294-.58-1.216-4.5-.723-4.5-.723,3.14.741,3.326,1.415,3.326,1.415" transform="translate(-35.745 -17.846)" fill="#78a5c4"/>
      <path id="Caminho_49" data-name="Caminho 49" d="M152.833,92.931a4.952,4.952,0,0,1-2.092-.395,2.962,2.962,0,0,1-1.291-1.077,2.842,2.842,0,0,1-.439-1.573H151a1.174,1.174,0,0,0,.194.652,1.339,1.339,0,0,0,.6.483,2.533,2.533,0,0,0,1.039.181,2.694,2.694,0,0,0,.964-.15,1.3,1.3,0,0,0,.589-.42,1.011,1.011,0,0,0,.2-.62.8.8,0,0,0-.376-.7A2.647,2.647,0,0,0,153,88.985l-.689-.062a3.573,3.573,0,0,1-2.18-.852,2.511,2.511,0,0,1-.815-1.955,2.614,2.614,0,0,1,1.592-2.5,4.78,4.78,0,0,1,3.626.025,2.747,2.747,0,0,1,1.184,1.039,2.935,2.935,0,0,1,.414,1.572h-2a1.194,1.194,0,0,0-.645-1.078,1.639,1.639,0,0,0-.8-.176,1.717,1.717,0,0,0-.758.151,1.041,1.041,0,0,0-.457.407,1.086,1.086,0,0,0-.151.557.944.944,0,0,0,.276.677,1.359,1.359,0,0,0,.9.339l.7.062a5.428,5.428,0,0,1,1.767.433,2.919,2.919,0,0,1,1.2.939,2.4,2.4,0,0,1,.432,1.447,2.622,2.622,0,0,1-.457,1.535,2.967,2.967,0,0,1-1.3,1.021,5.024,5.024,0,0,1-2,.364" transform="translate(-55.929 -31.255)" fill="#78a5c4"/>
      <path id="Caminho_50" data-name="Caminho 50" d="M165.417,83.713h2v9.146h-2Zm1.754,0h3.909v1.7h-3.909Zm0,3.646h3.709v1.7h-3.709Zm0,3.8h4v1.7h-4Z" transform="translate(-62.087 -31.42)" fill="#78a5c4"/>
      <path id="Caminho_51" data-name="Caminho 51" d="M179.337,92.859V83.713h2.832l2.092,5.137h.238l2.067-5.137h2.882v9.146h-2.03V85.054l.289.025L185.288,91h-1.955L180.9,85.079l.313-.025v7.805Z" transform="translate(-67.311 -31.42)" fill="#78a5c4"/>
      <path id="Caminho_52" data-name="Caminho 52" d="M200.817,83.592h2.055v9.221h-2.055Zm1.8,6.6V88.416h1.641a1.688,1.688,0,0,0,.821-.188,1.3,1.3,0,0,0,.532-.532,1.632,1.632,0,0,0,.188-.8,1.683,1.683,0,0,0-.188-.82,1.264,1.264,0,0,0-.532-.526,1.731,1.731,0,0,0-.821-.182h-1.641V83.592h1.54a4.7,4.7,0,0,1,2,.389,2.9,2.9,0,0,1,1.278,1.1,3.18,3.18,0,0,1,.445,1.717V87a3.165,3.165,0,0,1-.445,1.7,2.889,2.889,0,0,1-1.278,1.108,4.693,4.693,0,0,1-2,.389Z" transform="translate(-75.373 -31.375)" fill="#78a5c4"/>
      <path id="Caminho_53" data-name="Caminho 53" d="M216.2,83.592h2.055v9.221H216.2Zm1.5,6.29V88.265h2.255a1.607,1.607,0,0,0,.783-.181,1.27,1.27,0,0,0,.513-.513,1.724,1.724,0,0,0,0-1.541,1.263,1.263,0,0,0-.513-.513,1.6,1.6,0,0,0-.783-.182H217.7V83.592H219.8a5.2,5.2,0,0,1,1.979.345,2.765,2.765,0,0,1,1.291,1.021,3.009,3.009,0,0,1,.451,1.7v.2a2.926,2.926,0,0,1-.457,1.685,2.748,2.748,0,0,1-1.291,1,5.322,5.322,0,0,1-1.973.332Zm4.047,2.932-2.681-3.934h2.255l2.807,3.934Z" transform="translate(-81.147 -31.375)" fill="#78a5c4"/>
      <path id="Caminho_54" data-name="Caminho 54" d="M232.846,83.713h2v9.146h-2Zm1.754,0h3.909v1.7H234.6Zm0,3.646h3.709v1.7H234.6Zm0,3.8h4v1.7h-4Z" transform="translate(-87.395 -31.42)" fill="#78a5c4"/>
      <path id="Caminho_55" data-name="Caminho 55" d="M252.982,92.859V83.713h3.37l3.446,7.479h.426l-.251.226V83.713h1.93v9.146h-3.4l-3.446-7.48h-.426l.25-.226v7.705Z" transform="translate(-94.953 -31.42)" fill="#78a5c4"/>
      <path id="Caminho_56" data-name="Caminho 56" d="M276.649,92.931a5.044,5.044,0,0,1-2.161-.432,4.43,4.43,0,0,1-1.522-1.141,4.864,4.864,0,0,1-.9-1.534,4.726,4.726,0,0,1-.295-1.591v-.275a4.814,4.814,0,0,1,.307-1.685,4.576,4.576,0,0,1,.921-1.51,4.488,4.488,0,0,1,1.529-1.083,5.706,5.706,0,0,1,4.234,0,4.5,4.5,0,0,1,1.529,1.083,4.679,4.679,0,0,1,.927,1.51,4.753,4.753,0,0,1,.314,1.685v.275a4.648,4.648,0,0,1-.3,1.591,4.98,4.98,0,0,1-.9,1.534,4.432,4.432,0,0,1-1.522,1.141,5.041,5.041,0,0,1-2.161.432m0-1.917a2.913,2.913,0,0,0,1.171-.226,2.591,2.591,0,0,0,.89-.626,2.689,2.689,0,0,0,.557-.928,3.319,3.319,0,0,0,.188-1.128,3.377,3.377,0,0,0-.194-1.171,2.689,2.689,0,0,0-.563-.928,2.519,2.519,0,0,0-.883-.608,3.292,3.292,0,0,0-2.33,0,2.514,2.514,0,0,0-.883.608,2.612,2.612,0,0,0-.558.928,3.5,3.5,0,0,0-.187,1.171,3.334,3.334,0,0,0,.187,1.128,2.691,2.691,0,0,0,.558.928,2.6,2.6,0,0,0,.883.626,2.867,2.867,0,0,0,1.165.226" transform="translate(-102.006 -31.255)" fill="#78a5c4"/>
      <path id="Caminho_57" data-name="Caminho 57" d="M296.725,92.859l3.019-9.146h3.32l3.132,9.146h-2.129l-2.531-7.73.652.263h-1.616l.677-.263-2.468,7.73Zm2.293-2.268.627-1.7h3.583l.639,1.7Z" transform="translate(-111.371 -31.42)" fill="#78a5c4"/>
      <path id="Caminho_58" data-name="Caminho 58" d="M315.8,83.713h2.055v9.146H315.8Zm1.8,7.342h3.834v1.8H317.6Z" transform="translate(-118.53 -31.42)" fill="#78a5c4"/>
      <path id="Caminho_59" data-name="Caminho 59" d="M326.148,83.713h7.2V85.5h-7.2Zm2.569,1.541h2.055v7.6h-2.055Z" transform="translate(-122.414 -31.42)" fill="#78a5c4"/>
      <path id="Caminho_60" data-name="Caminho 60" d="M345.443,92.931a5.044,5.044,0,0,1-2.161-.432,4.429,4.429,0,0,1-1.522-1.141,4.864,4.864,0,0,1-.9-1.534,4.725,4.725,0,0,1-.295-1.591v-.275a4.814,4.814,0,0,1,.307-1.685,4.576,4.576,0,0,1,.921-1.51,4.488,4.488,0,0,1,1.529-1.083,5.706,5.706,0,0,1,4.234,0,4.5,4.5,0,0,1,1.529,1.083,4.679,4.679,0,0,1,.927,1.51,4.753,4.753,0,0,1,.314,1.685v.275a4.648,4.648,0,0,1-.3,1.591,4.98,4.98,0,0,1-.9,1.534A4.432,4.432,0,0,1,347.6,92.5a5.039,5.039,0,0,1-2.161.432m0-1.917a2.913,2.913,0,0,0,1.171-.226,2.591,2.591,0,0,0,.89-.626,2.689,2.689,0,0,0,.557-.928,3.319,3.319,0,0,0,.188-1.128,3.377,3.377,0,0,0-.194-1.171,2.689,2.689,0,0,0-.563-.928,2.519,2.519,0,0,0-.883-.608,3.292,3.292,0,0,0-2.33,0,2.514,2.514,0,0,0-.883.608,2.611,2.611,0,0,0-.558.928,3.5,3.5,0,0,0-.187,1.171,3.334,3.334,0,0,0,.187,1.128,2.69,2.69,0,0,0,.558.928,2.6,2.6,0,0,0,.883.626,2.867,2.867,0,0,0,1.165.226" transform="translate(-127.827 -31.255)" fill="#78a5c4"/>
    </g>
  </g>
</svg>
