<svg xmlns="http://www.w3.org/2000/svg" xmlns:xlink="http://www.w3.org/1999/xlink" width="134" height="16" viewBox="0 0 134 16">
  <defs>
    <clipPath id="clip-path">
      <rect id="Ret칙ngulo_134" data-name="Ret칙ngulo 134" width="15" height="15" transform="translate(170 10359)" fill="#142b3e" opacity="0.502"/>
    </clipPath>
  </defs>
  <g id="Grupo_1602" data-name="Grupo 1602" transform="translate(-270 -1013.5)">
    <text id="_55_54_99151-9032" data-name="+55 54 99151-9032" transform="translate(294 1026.5)" fill="#142b3e" font-size="13" font-family="Montserrat-Regular, Montserrat" letter-spacing="-0.02em" opacity="0.998"><tspan x="0" y="0">+55 54 99151-9032</tspan></text>
    <g id="Grupo_de_m치scara_15" data-name="Grupo de m치scara 15" transform="translate(100 -9344.5)" opacity="0.998" clip-path="url(#clip-path)">
      <g id="Camada_1-2" transform="translate(170 10359.05)">
        <path id="Caminho_436" data-name="Caminho 436" d="M12.036,1.505c6.972,5.535.55,16.408-7.968,12.6-.168-.075-.31-.253-.476-.306-.61-.2-2.9.738-3.023.62L1.239,11.7A7.566,7.566,0,0,1,2.991,1.479a7.6,7.6,0,0,1,9.045.027ZM9.543,8.646c-.239.2-.588,1.076-.979,1.083a6.725,6.725,0,0,1-2.239-1.34A6.956,6.956,0,0,1,5.28,6.966c-.1-.494.665-.848.662-1.428a10.949,10.949,0,0,0-.8-2c-.391-.491-1.308-.177-1.668.24-1.56,1.811.388,4.3,1.685,5.64s4.946,3.426,6.422,1.543c.238-.3.618-1.025.4-1.376A17.068,17.068,0,0,0,9.958,8.547a.425.425,0,0,0-.416.1Z" fill="#142b3e"/>
      </g>
    </g>
  </g>
</svg>
