<svg id="Componente_20_14" data-name="Componente 20 – 14" xmlns="http://www.w3.org/2000/svg" xmlns:xlink="http://www.w3.org/1999/xlink" width="54" height="54" viewBox="0 0 54 54">
  <defs>
    <clipPath id="clip-path">
      <rect id="Retângulo_1000" data-name="Retângulo 1000" width="30" height="30" transform="translate(1704.983 52.983)" fill="#0492a8"/>
    </clipPath>
  </defs>
  <g id="Retângulo_129" data-name="Retângulo 129" fill="none" stroke="#0492a8" stroke-width="2">
    <rect width="54" height="54" rx="10" stroke="none"/>
    <rect x="1" y="1" width="52" height="52" rx="9" fill="none"/>
  </g>
  <g id="Grupo_de_máscara_22" data-name="Grupo de máscara 22" transform="translate(-1692.983 -40.983)" clip-path="url(#clip-path)">
    <g id="Camada_1-2" transform="translate(1705.051 53.037)">
      <g id="XYOQE9">
        <path id="Caminho_445" data-name="Caminho 445" d="M0,29.891l2.343-8.571A14.775,14.775,0,0,1,8.965,1.436a14.62,14.62,0,0,1,20.515,9.751A14.659,14.659,0,0,1,8.557,27.54Zm4.18-4.179L8.944,24.4c9.262,5.5,20.61-2.724,17.474-13.283a11.661,11.661,0,0,0-17.632-6.2,11.857,11.857,0,0,0-3.3,16.029Z" transform="translate(0 0)" fill="#0492a8"/>
        <path id="Caminho_446" data-name="Caminho 446" d="M24.085,18.776c.468.488-.106,2.11-.556,2.578-2.338,2.43-6.786.186-8.933-1.514-1.831-1.45-4.786-4.882-4.855-7.3-.049-1.729,1.265-4.178,3.31-3.432.6.217,1.27,2.806,1.66,3.441.118.653-1.065,1.519-1.155,1.848-.17.614,1.5,2.474,2.01,2.906.439.375,2.808,1.925,3.234,1.816.738-.343,1.237-1.853,1.984-1.822a21.961,21.961,0,0,1,3.3,1.48Z" transform="translate(-1.653 -1.522)" fill="#0492a8"/>
      </g>
    </g>
  </g>
</svg>
